<?xml version="1.0" encoding="UTF-8"?>
<svg id="Layer_2" data-name="Layer 2" xmlns="http://www.w3.org/2000/svg" viewBox="0 0 141.06 130.14">
  <defs>
    <style>
      .cls-1 {
        fill: #fcece2;
      }
    </style>
  </defs>
  <g id="Layer_2-2" data-name="Layer 2">
    <g>
      <path class="cls-1" d="M64.35,130.14c-.02-.11,.35-60.84,.35-60.84,0-1.83-1.17-4.04-4.22-3.55-.71,.12-1.32,.55-1.98,.8-4.23,1.57-8.73,2.27-13.49,2.09-1.44-.05-2.61-1.13-2.61-3.94v-18.41c0-1.33,1.12-2.37,2.53-2.45,2.17-.12,4.32-.68,6.46-1.67,2.97-1.37,5.83-3.18,8.6-5.43,2.4-1.96,6.38-5.29,7.37-6.12,.15-.12,.34-.19,.54-.19h21.1c1.46,0,2.64,1.11,2.64,2.48v95.42c16.89-4.87,31.12-15.43,40.19-29.29,5.88-9.67,9.24-20.87,9.24-32.8C141.06,29.66,109.48,0,70.53,0S0,29.66,0,66.24c0,10.67,2.69,20.74,7.46,29.67,11.27,19.07,32.31,32.26,56.89,34.23Z"/>
      <path class="cls-1" d="M85.69,111.54h-1.13s0-47.84,0-47.84c0-1.23-1.07-2.24-2.38-2.24h-2.23c.09-.1,.15-.23,.15-.37v-1.51c0-.34-.29-.61-.65-.61-.63,0-.29-1.39-.31-2.02l-.45-7.58-1.03-9.12-1.01,9.24-.7,7.53c-.02,.63,.35,1.96-.28,1.96h0c-.36,0-.65,.28-.65,.61v1.51c0,.14,.06,.27,.15,.37h-2.23c-1.31,0-2.38,1.01-2.38,2.24v13.83h8.03c.71,0,1.29,.58,1.29,1.29s-.58,1.29-1.29,1.29h-8.03v3.03h4.56c.71,0,1.29,.58,1.29,1.29s-.58,1.29-1.29,1.29h-4.56v2.87h8.03c.71,0,1.29,.58,1.29,1.29s-.58,1.29-1.29,1.29h-8.03v2.11h3.84c.71,0,1.29,.58,1.29,1.29s-.58,1.29-1.29,1.29h-3.84v15.67h-1.13c-.52,0-.94,.4-.94,.88v3.37c0,.49,.42,.88,.94,.88h3.34c.65,0,1.17,.52,1.17,1.17v7.45h-1.04c-.5,0-.92,.39-.92,.86v2.58c0,.47,.41,1.39,.92,1.39,0,0,10.27-.49,10.27-.96l-.04-3.01c0-.47-.41-.86-.92-.86h-1.04v-7.45c0-.65,.52-1.17,1.17-1.17h3.34c.52,0,.94-.4,.94-.88v-3.37c0-.49-.42-.88-.94-.88Z"/>
    </g>
  </g>
</svg>