<?xml version="1.0" encoding="UTF-8"?>
<svg id="Layer_2" data-name="Layer 2" xmlns="http://www.w3.org/2000/svg" viewBox="0 0 141.06 155.68">
  <defs>
    <style>
      .cls-1 {
        fill: #f9897a;
      }
    </style>
  </defs>
  <g id="Layer_2-2" data-name="Layer 2">
    <g>
      <g>
        <path class="cls-1" d="M64.35,130.14c-.02-.11,.35-60.84,.35-60.84,0-1.83-1.17-4.04-4.22-3.55-.71,.12-1.32,.55-1.98,.8-4.23,1.57-8.73,2.27-13.49,2.09-1.44-.05-2.61-1.13-2.61-3.94v-18.41c0-1.33,1.12-2.37,2.53-2.45,2.17-.12,4.32-.68,6.46-1.67,2.97-1.37,5.83-3.18,8.6-5.43,2.4-1.96,6.38-5.29,7.37-6.12,.15-.12,.34-.19,.54-.19h21.1c1.46,0,2.64,1.11,2.64,2.48v95.42c16.89-4.87,31.12-15.43,40.19-29.29,5.88-9.67,9.24-20.87,9.24-32.8C141.06,29.66,109.48,0,70.53,0S0,29.66,0,66.24c0,10.67,2.69,20.74,7.46,29.67,11.27,19.07,32.31,32.26,56.89,34.23Z"/>
        <path class="cls-1" d="M85.69,111.54h-1.13s0-47.84,0-47.84c0-1.23-1.07-2.24-2.38-2.24h-2.23c.09-.1,.15-.23,.15-.37v-1.51c0-.34-.29-.61-.65-.61-.63,0-.29-1.39-.31-2.02l-.45-7.58-1.03-9.12-1.01,9.24-.7,7.53c-.02,.63,.35,1.96-.28,1.96h0c-.36,0-.65,.28-.65,.61v1.51c0,.14,.06,.27,.15,.37h-2.23c-1.31,0-2.38,1.01-2.38,2.24v13.83h8.03c.71,0,1.29,.58,1.29,1.29s-.58,1.29-1.29,1.29h-8.03v3.03h4.56c.71,0,1.29,.58,1.29,1.29s-.58,1.29-1.29,1.29h-4.56v2.87h8.03c.71,0,1.29,.58,1.29,1.29s-.58,1.29-1.29,1.29h-8.03v2.11h3.84c.71,0,1.29,.58,1.29,1.29s-.58,1.29-1.29,1.29h-3.84v15.67h-1.13c-.52,0-.94,.4-.94,.88v3.37c0,.49,.42,.88,.94,.88h3.34c.65,0,1.17,.52,1.17,1.17v7.45h-1.04c-.5,0-.92,.39-.92,.86v2.58c0,.47,.41,1.39,.92,1.39,0,0,10.27-.49,10.27-.96l-.04-3.01c0-.47-.41-.86-.92-.86h-1.04v-7.45c0-.65,.52-1.17,1.17-1.17h3.34c.52,0,.94-.4,.94-.88v-3.37c0-.49-.42-.88-.94-.88Z"/>
      </g>
      <g>
        <path class="cls-1" d="M29.28,155.43v-10.46h1.57l.1,1.92v8.53h-1.67Zm7.34-5.35c0-1.03-.12-1.82-.36-2.36-.24-.54-.56-.92-.98-1.12-.42-.2-.89-.3-1.42-.3-.92,0-1.64,.32-2.14,.97-.51,.65-.76,1.57-.76,2.75h-.82c0-1.1,.16-2.05,.48-2.84,.32-.79,.78-1.4,1.39-1.82,.61-.42,1.34-.63,2.21-.63,1.27,0,2.27,.39,3,1.17,.73,.78,1.09,1.97,1.08,3.56l-1.67,.63Zm0,5.35v-5.35l1.67-.63v5.98h-1.67Z"/>
        <path class="cls-1" d="M44.32,155.68c-1.24,0-2.21-.28-2.9-.85-.69-.56-1.04-1.35-1.04-2.35,0-1.06,.35-1.87,1.06-2.44,.7-.56,1.69-.85,2.96-.85h3.68v1.4h-3.3c-.98,0-1.67,.16-2.08,.48s-.62,.78-.62,1.38c0,.54,.2,.97,.61,1.29,.4,.31,.97,.47,1.69,.47,.61,0,1.14-.14,1.59-.42s.79-.66,1.02-1.14,.36-1.03,.36-1.64h1.02c0,1.42-.35,2.56-1.05,3.4-.7,.84-1.7,1.27-3.01,1.27Zm3.18-.25l-.17-5.52c-.03-.82-.13-1.5-.31-2.04s-.46-.94-.84-1.21-.88-.41-1.51-.41-1.12,.12-1.56,.36c-.44,.24-.8,.61-1.08,1.11l-1.48-.61c.26-.49,.59-.91,.98-1.27,.39-.36,.85-.63,1.38-.83,.53-.19,1.12-.29,1.78-.29,.96,0,1.76,.19,2.41,.56,.64,.38,1.12,.94,1.43,1.68,.31,.75,.47,1.68,.47,2.79v5.67h-1.51Z"/>
        <path class="cls-1" d="M51.66,155.43l.04-14.64h1.67l-.04,14.64h-1.67Z"/>
        <path class="cls-1" d="M59.67,155.68c-1.24,0-2.21-.28-2.9-.85-.69-.56-1.04-1.35-1.04-2.35,0-1.06,.35-1.87,1.06-2.44,.7-.56,1.69-.85,2.96-.85h3.68v1.4h-3.3c-.98,0-1.67,.16-2.08,.48s-.62,.78-.62,1.38c0,.54,.2,.97,.61,1.29,.4,.31,.97,.47,1.69,.47,.61,0,1.14-.14,1.59-.42s.79-.66,1.02-1.14,.36-1.03,.36-1.64h1.02c0,1.42-.35,2.56-1.05,3.4-.7,.84-1.7,1.27-3.01,1.27Zm3.18-.25l-.17-5.52c-.03-.82-.13-1.5-.31-2.04s-.46-.94-.84-1.21-.88-.41-1.51-.41-1.12,.12-1.56,.36c-.44,.24-.8,.61-1.08,1.11l-1.48-.61c.26-.49,.59-.91,.98-1.27,.39-.36,.85-.63,1.38-.83,.53-.19,1.12-.29,1.78-.29,.96,0,1.76,.19,2.41,.56,.64,.38,1.12,.94,1.43,1.68,.31,.75,.47,1.68,.47,2.79v5.67h-1.51Z"/>
        <path class="cls-1" d="M65.67,155.43l4.27-6,3.01-4.46h1.99l-3.97,5.65-3.26,4.81h-2.03Zm7.51,0l-3.22-4.81-4.02-5.65h1.99l3.03,4.46,4.23,6h-2.01Z"/>
        <path class="cls-1" d="M83.6,155.68c-1.48,0-2.79-.32-3.92-.97-1.14-.65-2.03-1.54-2.67-2.68-.64-1.14-.96-2.44-.96-3.92s.32-2.79,.96-3.92c.64-1.14,1.52-2.02,2.65-2.67,1.12-.64,2.42-.96,3.88-.96s2.76,.32,3.89,.97c1.13,.65,2.02,1.54,2.66,2.68,.64,1.14,.96,2.44,.96,3.92s-.32,2.76-.95,3.9c-.63,1.14-1.51,2.03-2.62,2.68-1.12,.65-2.41,.97-3.87,.97Zm0-2.61c.88,0,1.66-.21,2.34-.64,.68-.43,1.22-1.01,1.6-1.76,.38-.75,.58-1.6,.58-2.56s-.2-1.81-.59-2.55c-.39-.74-.93-1.32-1.61-1.75-.68-.43-1.48-.64-2.38-.64s-1.66,.21-2.35,.64c-.69,.43-1.23,1.01-1.62,1.75-.39,.74-.59,1.6-.59,2.57s.2,1.81,.59,2.55c.39,.74,.93,1.32,1.63,1.75s1.5,.64,2.41,.64Z"/>
        <path class="cls-1" d="M93.36,155.43v-14.64h2.99l-.13,2.53v12.13l-2.87-.02Zm10.14,0l-9.48-13.07,2.32-1.57,9.43,13.01-2.28,1.63Zm0,0v-14.64h2.84v14.64h-2.84Z"/>
        <path class="cls-1" d="M109.53,155.43v-14.64h2.87v14.64h-2.87Zm2.18-12.03v-2.61h7.09v2.61h-7.09Zm0,5.88v-2.55h6.21v2.55h-6.21Zm0,6.15v-2.61h7.17v2.61h-7.17Z"/>
      </g>
    </g>
  </g>
</svg>