<?xml version="1.0" encoding="UTF-8"?>
<svg id="Layer_2" data-name="Layer 2" xmlns="http://www.w3.org/2000/svg" viewBox="0 0 415.11 184.06">
  <defs>
    <style>
      .cls-1 {
        fill: #f9897a;
      }

      .cls-2 {
        fill: #f76b5c;
      }
    </style>
  </defs>
  <g id="Layer_1-2" data-name="Layer 1">
    <g>
      <g>
        <path class="cls-1" d="M64.35,130.14c-.02-.11,.35-60.84,.35-60.84,0-1.83-1.17-4.04-4.22-3.55-.71,.12-1.32,.55-1.98,.8-4.23,1.57-8.73,2.27-13.49,2.09-1.44-.05-2.61-1.13-2.61-3.94v-18.41c0-1.33,1.12-2.37,2.53-2.45,2.17-.12,4.32-.68,6.46-1.67,2.97-1.37,5.83-3.18,8.6-5.43,2.4-1.96,6.38-5.29,7.37-6.12,.15-.12,.34-.19,.54-.19h21.1c1.46,0,2.64,1.11,2.64,2.48v95.42c16.89-4.87,31.12-15.43,40.19-29.29,5.88-9.67,9.24-20.87,9.24-32.8C141.06,29.66,109.48,0,70.53,0S0,29.66,0,66.24c0,10.67,2.69,20.74,7.46,29.67,11.27,19.07,32.31,32.26,56.89,34.23Z"/>
        <path class="cls-1" d="M85.69,111.54h-1.13s0-47.84,0-47.84c0-1.23-1.07-2.24-2.38-2.24h-2.23c.09-.1,.15-.23,.15-.37v-1.51c0-.34-.29-.61-.65-.61-.63,0-.29-1.39-.31-2.02l-.45-7.58-1.03-9.12-1.01,9.24-.7,7.53c-.02,.63,.35,1.96-.28,1.96h0c-.36,0-.65,.28-.65,.61v1.51c0,.14,.06,.27,.15,.37h-2.23c-1.31,0-2.38,1.01-2.38,2.24v13.83h8.03c.71,0,1.29,.58,1.29,1.29s-.58,1.29-1.29,1.29h-8.03v3.03h4.56c.71,0,1.29,.58,1.29,1.29s-.58,1.29-1.29,1.29h-4.56v2.87h8.03c.71,0,1.29,.58,1.29,1.29s-.58,1.29-1.29,1.29h-8.03v2.11h3.84c.71,0,1.29,.58,1.29,1.29s-.58,1.29-1.29,1.29h-3.84v15.67h-1.13c-.52,0-.94,.4-.94,.88v3.37c0,.49,.42,.88,.94,.88h3.34c.65,0,1.17,.52,1.17,1.17v7.45h-1.04c-.5,0-.92,.39-.92,.86v2.58c0,.47,.41,1.39,.92,1.39,0,0,10.27-.49,10.27-.96l-.04-3.01c0-.47-.41-.86-.92-.86h-1.04v-7.45c0-.65,.52-1.17,1.17-1.17h3.34c.52,0,.94-.4,.94-.88v-3.37c0-.49-.42-.88-.94-.88Z"/>
      </g>
      <g>
        <path class="cls-1" d="M204.8,124.14c-.01-.08,.26-45.4,.26-45.4,0-1.37-.87-3.02-3.15-2.65-.53,.09-.98,.41-1.48,.6-3.16,1.17-6.52,1.7-10.06,1.56-1.08-.04-1.95-.84-1.95-2.94v-13.74c0-.99,.83-1.77,1.89-1.83,1.62-.09,3.22-.51,4.82-1.24,2.22-1.02,4.35-2.37,6.41-4.05,1.79-1.46,4.76-3.95,5.5-4.57,.11-.09,.25-.14,.4-.14h15.74c1.09,0,1.97,.83,1.97,1.85V122.79c12.6-3.63,23.23-11.51,29.99-21.86,4.39-7.22,6.9-15.57,6.9-24.48,0-27.3-23.56-49.43-52.63-49.43s-52.63,22.13-52.63,49.43c0,7.96,2.01,15.48,5.57,22.14,8.41,14.23,24.11,24.07,42.45,25.54Z"/>
        <path class="cls-1" d="M220.73,110.26h-.85s0-35.7,0-35.7c0-.92-.8-1.67-1.78-1.67h-1.66c.07-.08,.11-.17,.11-.28v-1.13c0-.25-.22-.46-.49-.46-.47,0-.21-1.04-.23-1.51l-.33-5.66-.77-6.8-.75,6.89-.52,5.62c-.02,.47,.26,1.46-.21,1.46h0c-.27,0-.49,.21-.49,.46v1.13c0,.11,.05,.2,.11,.28h-1.66c-.98,0-1.78,.75-1.78,1.67v10.32h6c.53,0,.96,.43,.96,.96s-.43,.96-.96,.96h-6v2.26h3.4c.53,0,.96,.43,.96,.96s-.43,.96-.96,.96h-3.4v2.14h6c.53,0,.96,.43,.96,.96s-.43,.96-.96,.96h-6v1.58h2.87c.53,0,.96,.43,.96,.96s-.43,.96-.96,.96h-2.87v11.7h-.85c-.39,0-.7,.3-.7,.66v2.52c0,.36,.32,.66,.7,.66h2.49c.48,0,.87,.39,.87,.87v5.56h-.78c-.38,0-.68,.29-.68,.64v1.92c0,.35,.31,1.04,.68,1.04,0,0,7.67-.37,7.67-.72l-.03-2.24c0-.35-.31-.64-.68-.64h-.78v-5.56c0-.48,.39-.87,.87-.87h2.49c.39,0,.7-.3,.7-.66v-2.52c0-.36-.32-.66-.7-.66Z"/>
      </g>
      <g>
        <path class="cls-2" d="M19.97,183.78v-11.8h1.77l.12,2.17v9.63h-1.89Zm8.29-6.04c0-1.16-.13-2.05-.4-2.67-.27-.61-.64-1.03-1.11-1.26-.47-.23-1.01-.34-1.61-.34-1.04,0-1.85,.37-2.42,1.1-.57,.73-.86,1.77-.86,3.1h-.92c0-1.24,.18-2.31,.54-3.21,.36-.9,.88-1.58,1.57-2.05,.68-.47,1.51-.71,2.49-.71,1.43,0,2.56,.44,3.39,1.32,.83,.88,1.23,2.22,1.22,4.01l-1.89,.71Zm0,6.04v-6.04l1.89-.71v6.75h-1.89Z"/>
        <path class="cls-2" d="M36.94,184.06c-1.4,0-2.49-.32-3.27-.96-.78-.64-1.17-1.52-1.17-2.66,0-1.2,.4-2.11,1.19-2.75,.79-.64,1.91-.96,3.34-.96h4.15v1.58h-3.73c-1.1,0-1.89,.18-2.35,.54s-.7,.88-.7,1.56c0,.61,.23,1.1,.68,1.45,.46,.35,1.09,.53,1.91,.53,.69,0,1.29-.16,1.79-.47s.89-.74,1.16-1.29,.4-1.16,.4-1.85h1.16c0,1.61-.39,2.88-1.18,3.84-.79,.95-1.92,1.43-3.4,1.43Zm3.59-.28l-.19-6.23c-.03-.93-.15-1.7-.35-2.3s-.52-1.06-.94-1.37-.99-.46-1.7-.46-1.26,.13-1.76,.4c-.5,.27-.9,.68-1.22,1.25l-1.68-.68c.3-.55,.67-1.03,1.11-1.43,.44-.4,.96-.71,1.56-.93,.6-.22,1.27-.33,2.01-.33,1.09,0,1.99,.21,2.72,.64,.72,.42,1.26,1.06,1.62,1.9,.35,.84,.53,1.89,.53,3.15v6.4h-1.7Z"/>
        <path class="cls-2" d="M45.22,183.78l.05-16.52h1.89l-.05,16.52h-1.89Z"/>
        <path class="cls-2" d="M54.26,184.06c-1.4,0-2.49-.32-3.27-.96-.78-.64-1.17-1.52-1.17-2.66,0-1.2,.4-2.11,1.19-2.75,.79-.64,1.91-.96,3.34-.96h4.15v1.58h-3.73c-1.1,0-1.89,.18-2.35,.54s-.7,.88-.7,1.56c0,.61,.23,1.1,.68,1.45,.46,.35,1.09,.53,1.91,.53,.69,0,1.29-.16,1.79-.47s.89-.74,1.16-1.29,.4-1.16,.4-1.85h1.16c0,1.61-.39,2.88-1.18,3.84-.79,.95-1.92,1.43-3.4,1.43Zm3.59-.28l-.19-6.23c-.03-.93-.15-1.7-.35-2.3s-.52-1.06-.94-1.37-.99-.46-1.7-.46-1.26,.13-1.76,.4c-.5,.27-.9,.68-1.22,1.25l-1.68-.68c.3-.55,.67-1.03,1.11-1.43,.44-.4,.96-.71,1.56-.93,.6-.22,1.27-.33,2.01-.33,1.09,0,1.99,.21,2.72,.64,.72,.42,1.26,1.06,1.62,1.9,.35,.84,.53,1.89,.53,3.15v6.4h-1.7Z"/>
        <path class="cls-2" d="M61.04,183.78l4.82-6.77,3.4-5.03h2.24l-4.48,6.37-3.68,5.43h-2.29Zm8.47,0l-3.63-5.43-4.53-6.37h2.24l3.42,5.03,4.77,6.77h-2.27Z"/>
        <path class="cls-2" d="M81.27,184.06c-1.67,0-3.14-.37-4.43-1.1-1.28-.73-2.29-1.74-3.01-3.02-.72-1.28-1.09-2.76-1.09-4.43s.36-3.14,1.09-4.43c.72-1.28,1.72-2.29,2.99-3.01,1.27-.72,2.73-1.09,4.38-1.09s3.12,.37,4.39,1.1c1.28,.73,2.27,1.74,3,3.02,.72,1.28,1.09,2.76,1.09,4.43s-.36,3.12-1.07,4.4c-.72,1.28-1.7,2.29-2.96,3.02-1.26,.73-2.71,1.1-4.37,1.1Zm0-2.95c.99,0,1.87-.24,2.64-.72,.77-.48,1.37-1.14,1.81-1.98,.43-.84,.65-1.81,.65-2.89s-.22-2.05-.66-2.88c-.44-.83-1.05-1.49-1.82-1.97-.77-.48-1.67-.72-2.69-.72s-1.88,.24-2.66,.72c-.78,.48-1.39,1.14-1.83,1.97-.44,.83-.66,1.8-.66,2.9s.22,2.05,.66,2.88c.44,.83,1.05,1.49,1.84,1.97s1.69,.72,2.71,.72Z"/>
        <path class="cls-2" d="M92.29,183.78v-16.52h3.38l-.14,2.86v13.69l-3.23-.02Zm11.45,0l-10.69-14.75,2.62-1.77,10.65,14.68-2.57,1.84Zm0,0v-16.52h3.21v16.52h-3.21Z"/>
        <path class="cls-2" d="M110.54,183.78v-16.52h3.23v16.52h-3.23Zm2.46-13.57v-2.95h8v2.95h-8Zm0,6.63v-2.88h7.01v2.88h-7.01Zm0,6.94v-2.95h8.1v2.95h-8.1Z"/>
      </g>
      <g>
        <path class="cls-2" d="M153.74,183.82v-10.14h1.52l.1,1.87v8.28h-1.62Zm7.12-5.19c0-1-.12-1.76-.34-2.29-.23-.53-.55-.89-.95-1.08-.41-.2-.87-.29-1.38-.29-.89,0-1.59,.31-2.08,.94-.49,.63-.74,1.52-.74,2.67h-.79c0-1.07,.16-1.99,.47-2.76,.31-.77,.76-1.36,1.35-1.76,.59-.41,1.3-.61,2.14-.61,1.23,0,2.2,.38,2.91,1.14,.71,.76,1.06,1.91,1.04,3.45l-1.62,.61Zm0,5.19v-5.19l1.62-.61v5.8h-1.62Z"/>
        <path class="cls-2" d="M168.32,184.06c-1.2,0-2.14-.27-2.81-.82-.67-.55-1-1.31-1-2.28,0-1.03,.34-1.82,1.02-2.36,.68-.55,1.64-.82,2.87-.82h3.57v1.36h-3.21c-.95,0-1.62,.16-2.02,.47s-.6,.76-.6,1.34c0,.53,.2,.94,.59,1.25,.39,.3,.94,.46,1.64,.46,.59,0,1.11-.13,1.54-.41s.76-.64,.99-1.11,.35-1,.35-1.59h.99c0,1.38-.34,2.48-1.01,3.3-.68,.82-1.65,1.23-2.92,1.23Zm3.08-.24l-.16-5.36c-.03-.8-.13-1.46-.3-1.98s-.45-.91-.81-1.18-.85-.4-1.46-.4-1.08,.12-1.51,.34c-.43,.23-.77,.59-1.04,1.08l-1.44-.59c.26-.47,.57-.88,.95-1.23,.38-.34,.82-.61,1.34-.8,.51-.19,1.09-.28,1.72-.28,.93,0,1.71,.18,2.33,.55,.62,.37,1.08,.91,1.39,1.63,.3,.72,.46,1.63,.46,2.71v5.5h-1.46Z"/>
        <path class="cls-2" d="M175.45,183.82l.04-14.2h1.62l-.04,14.2h-1.62Z"/>
        <path class="cls-2" d="M183.21,184.06c-1.2,0-2.14-.27-2.81-.82-.67-.55-1-1.31-1-2.28,0-1.03,.34-1.82,1.02-2.36,.68-.55,1.64-.82,2.87-.82h3.57v1.36h-3.21c-.95,0-1.62,.16-2.02,.47s-.6,.76-.6,1.34c0,.53,.2,.94,.59,1.25,.39,.3,.94,.46,1.64,.46,.59,0,1.11-.13,1.54-.41s.76-.64,.99-1.11,.35-1,.35-1.59h.99c0,1.38-.34,2.48-1.01,3.3-.68,.82-1.65,1.23-2.92,1.23Zm3.08-.24l-.16-5.36c-.03-.8-.13-1.46-.3-1.98s-.45-.91-.81-1.18-.85-.4-1.46-.4-1.08,.12-1.51,.34c-.43,.23-.77,.59-1.04,1.08l-1.44-.59c.26-.47,.57-.88,.95-1.23,.38-.34,.82-.61,1.34-.8,.51-.19,1.09-.28,1.72-.28,.93,0,1.71,.18,2.33,.55,.62,.37,1.08,.91,1.39,1.63,.3,.72,.46,1.63,.46,2.71v5.5h-1.46Z"/>
        <path class="cls-2" d="M189.04,183.82l4.14-5.82,2.92-4.32h1.93l-3.85,5.48-3.16,4.67h-1.97Zm7.28,0l-3.12-4.67-3.9-5.48h1.93l2.94,4.32,4.1,5.82h-1.95Z"/>
        <path class="cls-2" d="M206.42,184.06c-1.43,0-2.7-.31-3.8-.94-1.1-.63-1.96-1.49-2.59-2.6-.62-1.1-.93-2.37-.93-3.8s.31-2.7,.93-3.8c.62-1.1,1.48-1.96,2.57-2.59,1.09-.62,2.34-.93,3.76-.93s2.68,.31,3.77,.94c1.1,.63,1.95,1.49,2.58,2.6,.62,1.1,.93,2.37,.93,3.8s-.31,2.68-.92,3.78c-.62,1.1-1.46,1.97-2.55,2.6-1.08,.63-2.33,.94-3.75,.94Zm0-2.54c.85,0,1.61-.21,2.27-.62,.66-.41,1.18-.98,1.55-1.7,.37-.72,.56-1.55,.56-2.49s-.19-1.76-.57-2.47c-.38-.72-.9-1.28-1.56-1.69-.66-.41-1.43-.62-2.31-.62s-1.61,.21-2.28,.62c-.67,.41-1.19,.98-1.57,1.69-.38,.72-.57,1.55-.57,2.5s.19,1.76,.57,2.47c.38,.72,.91,1.28,1.58,1.69s1.45,.62,2.33,.62Z"/>
        <path class="cls-2" d="M215.89,183.82v-14.2h2.9l-.12,2.45v11.77l-2.78-.02Zm9.84,0l-9.19-12.68,2.25-1.52,9.15,12.62-2.21,1.58Zm0,0v-14.2h2.76v14.2h-2.76Z"/>
        <path class="cls-2" d="M231.58,183.82v-14.2h2.78v14.2h-2.78Zm2.11-11.66v-2.54h6.88v2.54h-6.88Zm0,5.7v-2.47h6.02v2.47h-6.02Zm0,5.96v-2.54h6.96v2.54h-6.96Z"/>
      </g>
      <g>
        <path class="cls-2" d="M273.29,183.9v-6.84h1.09l.07,1.26v5.58h-1.16Zm5.09-3.5c0-.68-.08-1.19-.25-1.55-.16-.36-.39-.6-.68-.73-.29-.13-.62-.2-.99-.2-.64,0-1.13,.21-1.49,.64-.35,.42-.53,1.02-.53,1.8h-.57c0-.72,.11-1.34,.33-1.86,.22-.52,.54-.92,.96-1.19,.42-.27,.93-.41,1.53-.41,.88,0,1.57,.26,2.08,.77,.51,.51,.76,1.29,.75,2.33l-1.16,.41Zm0,3.5v-3.5l1.16-.41v3.91h-1.16Z"/>
        <path class="cls-2" d="M283.72,184.06c-.86,0-1.53-.18-2.01-.55-.48-.37-.72-.88-.72-1.54,0-.69,.24-1.23,.73-1.59,.49-.37,1.17-.55,2.05-.55h2.55v.92h-2.29c-.68,0-1.16,.1-1.44,.31s-.43,.51-.43,.9c0,.36,.14,.64,.42,.84,.28,.21,.67,.31,1.17,.31,.43,0,.79-.09,1.1-.27s.55-.43,.71-.75,.25-.67,.25-1.07h.71c0,.93-.24,1.67-.72,2.22-.48,.55-1.18,.83-2.09,.83Zm2.2-.16l-.12-3.61c-.02-.54-.09-.98-.22-1.33s-.32-.62-.58-.79-.61-.27-1.04-.27-.78,.08-1.08,.23c-.3,.16-.55,.4-.75,.73l-1.03-.4c.18-.32,.41-.6,.68-.83,.27-.23,.59-.41,.96-.54,.37-.13,.78-.19,1.23-.19,.67,0,1.22,.12,1.67,.37,.44,.25,.78,.61,.99,1.1,.22,.49,.33,1.1,.33,1.83v3.71h-1.04Z"/>
        <path class="cls-2" d="M288.8,183.9l.03-9.58h1.16l-.03,9.58h-1.16Z"/>
        <path class="cls-2" d="M294.35,184.06c-.86,0-1.53-.18-2.01-.55-.48-.37-.72-.88-.72-1.54,0-.69,.24-1.23,.73-1.59,.49-.37,1.17-.55,2.05-.55h2.55v.92h-2.29c-.68,0-1.16,.1-1.44,.31s-.43,.51-.43,.9c0,.36,.14,.64,.42,.84,.28,.21,.67,.31,1.17,.31,.43,0,.79-.09,1.1-.27s.55-.43,.71-.75,.25-.67,.25-1.07h.71c0,.93-.24,1.67-.72,2.22-.48,.55-1.18,.83-2.09,.83Zm2.2-.16l-.12-3.61c-.02-.54-.09-.98-.22-1.33s-.32-.62-.58-.79-.61-.27-1.04-.27-.78,.08-1.08,.23c-.3,.16-.55,.4-.75,.73l-1.03-.4c.18-.32,.41-.6,.68-.83,.27-.23,.59-.41,.96-.54,.37-.13,.78-.19,1.23-.19,.67,0,1.22,.12,1.67,.37,.44,.25,.78,.61,.99,1.1,.22,.49,.33,1.1,.33,1.83v3.71h-1.04Z"/>
        <path class="cls-2" d="M298.51,183.9l2.96-3.93,2.09-2.92h1.38l-2.75,3.7-2.26,3.15h-1.41Zm5.2,0l-2.23-3.15-2.78-3.7h1.38l2.1,2.92,2.93,3.93h-1.39Z"/>
        <path class="cls-2" d="M310.94,184.06c-1.02,0-1.93-.21-2.72-.64-.79-.42-1.4-1.01-1.85-1.75-.44-.74-.67-1.6-.67-2.57s.22-1.82,.67-2.57c.44-.74,1.06-1.33,1.83-1.74,.78-.42,1.67-.63,2.69-.63s1.91,.21,2.7,.64c.78,.42,1.4,1.01,1.84,1.75,.44,.74,.67,1.6,.67,2.57s-.22,1.81-.66,2.55c-.44,.74-1.05,1.33-1.82,1.75-.77,.42-1.67,.64-2.68,.64Zm0-1.71c.61,0,1.15-.14,1.62-.42,.47-.28,.84-.66,1.11-1.15,.27-.49,.4-1.05,.4-1.68s-.14-1.19-.41-1.67c-.27-.48-.64-.86-1.12-1.14-.47-.28-1.02-.42-1.65-.42s-1.15,.14-1.63,.42c-.48,.28-.85,.66-1.12,1.14-.27,.48-.41,1.04-.41,1.68s.14,1.19,.41,1.67c.27,.48,.65,.86,1.13,1.14s1.04,.42,1.67,.42Z"/>
        <path class="cls-2" d="M317.71,183.9v-9.58h2.07l-.09,1.66v7.94h-1.99Zm7.03-.01l-6.57-8.55,1.61-1.03,6.54,8.51-1.58,1.07Zm0,0v-9.58h1.97v9.58h-1.97Z"/>
        <path class="cls-2" d="M328.91,183.9v-9.58h1.99v9.58h-1.99Zm1.51-7.87v-1.71h4.91v1.71h-4.91Zm0,3.85v-1.67h4.3v1.67h-4.3Zm0,4.02v-1.71h4.97v1.71h-4.97Z"/>
      </g>
      <g>
        <path class="cls-2" d="M368.04,183.95v-4.77h.72l.05,.88v3.89h-.76Zm3.35-2.44c0-.47-.05-.83-.16-1.08-.11-.25-.26-.42-.45-.51-.19-.09-.41-.14-.65-.14-.42,0-.75,.15-.98,.44-.23,.3-.35,.71-.35,1.25h-.37c0-.5,.07-.93,.22-1.3,.15-.36,.36-.64,.63-.83,.28-.19,.61-.29,1.01-.29,.58,0,1.03,.18,1.37,.53,.33,.36,.5,.9,.49,1.62l-.76,.29Zm0,2.44v-2.44l.76-.29v2.73h-.76Z"/>
        <path class="cls-2" d="M374.9,184.06c-.57,0-1.01-.13-1.32-.39-.31-.26-.47-.62-.47-1.07,0-.48,.16-.85,.48-1.11,.32-.26,.77-.39,1.35-.39h1.68v.64h-1.51c-.45,0-.76,.07-.95,.22s-.28,.36-.28,.63c0,.25,.09,.44,.28,.59,.18,.14,.44,.21,.77,.21,.28,0,.52-.06,.72-.19s.36-.3,.47-.52,.16-.47,.16-.75h.47c0,.65-.16,1.17-.48,1.55-.32,.38-.78,.58-1.37,.58Zm1.45-.11l-.08-2.52c-.01-.38-.06-.69-.14-.93s-.21-.43-.38-.55-.4-.19-.69-.19-.51,.05-.71,.16c-.2,.11-.36,.28-.49,.51l-.68-.28c.12-.22,.27-.41,.45-.58,.18-.16,.39-.29,.63-.38,.24-.09,.51-.13,.81-.13,.44,0,.8,.09,1.1,.26,.29,.17,.51,.43,.65,.77,.14,.34,.21,.76,.21,1.27v2.58h-.69Z"/>
        <path class="cls-2" d="M378.25,183.95l.02-6.68h.76l-.02,6.68h-.76Z"/>
        <path class="cls-2" d="M381.9,184.06c-.57,0-1.01-.13-1.32-.39-.31-.26-.47-.62-.47-1.07,0-.48,.16-.85,.48-1.11,.32-.26,.77-.39,1.35-.39h1.68v.64h-1.51c-.45,0-.76,.07-.95,.22s-.28,.36-.28,.63c0,.25,.09,.44,.28,.59,.18,.14,.44,.21,.77,.21,.28,0,.52-.06,.72-.19s.36-.3,.47-.52,.16-.47,.16-.75h.47c0,.65-.16,1.17-.48,1.55-.32,.38-.78,.58-1.37,.58Zm1.45-.11l-.08-2.52c-.01-.38-.06-.69-.14-.93s-.21-.43-.38-.55-.4-.19-.69-.19-.51,.05-.71,.16c-.2,.11-.36,.28-.49,.51l-.68-.28c.12-.22,.27-.41,.45-.58,.18-.16,.39-.29,.63-.38,.24-.09,.51-.13,.81-.13,.44,0,.8,.09,1.1,.26,.29,.17,.51,.43,.65,.77,.14,.34,.21,.76,.21,1.27v2.58h-.69Z"/>
        <path class="cls-2" d="M384.64,183.95l1.95-2.74,1.37-2.03h.91l-1.81,2.58-1.49,2.19h-.93Zm3.42,0l-1.47-2.19-1.83-2.58h.91l1.38,2.03,1.93,2.74h-.92Z"/>
        <path class="cls-2" d="M392.81,184.06c-.67,0-1.27-.15-1.79-.44-.52-.3-.92-.7-1.22-1.22-.29-.52-.44-1.11-.44-1.79s.15-1.27,.44-1.79c.29-.52,.69-.92,1.21-1.22,.51-.29,1.1-.44,1.77-.44s1.26,.15,1.77,.44c.52,.3,.92,.7,1.21,1.22,.29,.52,.44,1.11,.44,1.79s-.14,1.26-.43,1.78c-.29,.52-.69,.93-1.2,1.22-.51,.3-1.1,.44-1.76,.44Zm0-1.19c.4,0,.76-.1,1.07-.29,.31-.19,.55-.46,.73-.8,.17-.34,.26-.73,.26-1.17s-.09-.83-.27-1.16c-.18-.34-.42-.6-.73-.8-.31-.19-.67-.29-1.09-.29s-.76,.1-1.07,.29c-.31,.19-.56,.46-.74,.8-.18,.34-.27,.73-.27,1.17s.09,.83,.27,1.16c.18,.34,.43,.6,.74,.8s.68,.29,1.1,.29Z"/>
        <path class="cls-2" d="M397.27,183.95v-6.68h1.36l-.06,1.15v5.53h-1.31Zm4.63,0l-4.32-5.96,1.06-.72,4.3,5.93-1.04,.74Zm0,0v-6.68h1.3v6.68h-1.3Z"/>
        <path class="cls-2" d="M404.64,183.95v-6.68h1.31v6.68h-1.31Zm.99-5.48v-1.19h3.23v1.19h-3.23Zm0,2.68v-1.16h2.83v1.16h-2.83Zm0,2.8v-1.19h3.27v1.19h-3.27Z"/>
      </g>
      <g>
        <path class="cls-1" d="M311.67,112.58c0-.06,.18-32.05,.18-32.05,0-.97-.61-2.13-2.22-1.87-.38,.06-.69,.29-1.05,.42-2.23,.83-4.6,1.2-7.1,1.1-.76-.03-1.37-.59-1.37-2.07v-9.7c0-.7,.59-1.25,1.33-1.29,1.14-.06,2.28-.36,3.4-.88,1.56-.72,3.07-1.67,4.53-2.86,1.27-1.03,3.36-2.79,3.88-3.22,.08-.07,.18-.1,.28-.1h11.11c.77,0,1.39,.58,1.39,1.31v50.27c8.9-2.56,16.4-8.13,21.17-15.43,3.1-5.09,4.87-10.99,4.87-17.28,0-19.27-16.63-34.89-37.15-34.89s-37.15,15.62-37.15,34.89c0,5.62,1.42,10.93,3.93,15.63,5.94,10.04,17.02,16.99,29.97,18.03Z"/>
        <path class="cls-1" d="M322.91,102.78h-.6s0-25.2,0-25.2c0-.65-.56-1.18-1.25-1.18h-1.17c.05-.05,.08-.12,.08-.2v-.8c0-.18-.15-.32-.34-.32-.33,0-.15-.73-.16-1.06l-.23-4-.54-4.8-.53,4.87-.37,3.96c-.01,.33,.19,1.03-.15,1.03h0c-.19,0-.34,.14-.34,.32v.8c0,.08,.03,.14,.08,.2h-1.17c-.69,0-1.25,.53-1.25,1.18v7.28h4.23c.37,0,.68,.31,.68,.68s-.31,.68-.68,.68h-4.23v1.6h2.4c.37,0,.68,.31,.68,.68s-.31,.68-.68,.68h-2.4v1.51h4.23c.37,0,.68,.31,.68,.68s-.31,.68-.68,.68h-4.23v1.11h2.02c.37,0,.68,.31,.68,.68s-.31,.68-.68,.68h-2.02v8.26h-.6c-.27,0-.5,.21-.5,.47v1.78c0,.26,.22,.47,.5,.47h1.76c.34,0,.62,.28,.62,.62v3.92h-.55c-.27,0-.48,.2-.48,.45v1.36c0,.25,.22,.73,.48,.73,0,0,5.41-.26,5.41-.51l-.02-1.58c0-.25-.22-.45-.48-.45h-.55v-3.92c0-.34,.28-.62,.62-.62h1.76c.27,0,.5-.21,.5-.47v-1.78c0-.26-.22-.47-.5-.47Z"/>
      </g>
      <g>
        <path class="cls-1" d="M389.38,103.67s.12-20.4,.12-20.4c0-.61-.39-1.36-1.41-1.19-.24,.04-.44,.19-.67,.27-1.42,.53-2.93,.76-4.52,.7-.48-.02-.88-.38-.88-1.32v-6.17c0-.45,.37-.8,.85-.82,.73-.04,1.45-.23,2.17-.56,1-.46,1.96-1.07,2.88-1.82,.81-.66,2.14-1.77,2.47-2.05,.05-.04,.11-.06,.18-.06h7.08c.49,0,.89,.37,.89,.83v32c5.66-1.63,10.44-5.17,13.48-9.82,1.97-3.24,3.1-7,3.1-11,0-12.27-10.59-22.21-23.65-22.21s-23.65,9.95-23.65,22.21c0,3.58,.9,6.96,2.5,9.95,3.78,6.39,10.83,10.82,19.08,11.48Z"/>
        <path class="cls-1" d="M396.54,97.43h-.38s0-16.04,0-16.04c0-.41-.36-.75-.8-.75h-.75s.05-.08,.05-.12v-.51c0-.11-.1-.21-.22-.21-.21,0-.1-.47-.1-.68l-.15-2.54-.35-3.06-.34,3.1-.23,2.52c0,.21,.12,.66-.09,.66h0c-.12,0-.22,.09-.22,.21v.51s.02,.09,.05,.12h-.75c-.44,0-.8,.34-.8,.75v4.64h2.69c.24,0,.43,.19,.43,.43s-.19,.43-.43,.43h-2.69v1.02h1.53c.24,0,.43,.19,.43,.43s-.19,.43-.43,.43h-1.53v.96h2.69c.24,0,.43,.19,.43,.43s-.19,.43-.43,.43h-2.69v.71h1.29c.24,0,.43,.19,.43,.43s-.19,.43-.43,.43h-1.29v5.26h-.38c-.17,0-.32,.13-.32,.3v1.13c0,.16,.14,.3,.32,.3h1.12c.22,0,.39,.18,.39,.39v2.5h-.35c-.17,0-.31,.13-.31,.29v.86c0,.16,.14,.47,.31,.47,0,0,3.45-.16,3.45-.32v-1.01c-.01-.16-.15-.29-.32-.29h-.35v-2.5c0-.22,.18-.39,.39-.39h1.12c.17,0,.32-.13,.32-.3v-1.13c0-.16-.14-.3-.32-.3Z"/>
      </g>
    </g>
  </g>
</svg>