<?xml version="1.0" encoding="UTF-8"?>
<svg id="Layer_2" data-name="Layer 2" xmlns="http://www.w3.org/2000/svg" viewBox="0 0 89.6 15.12">
  <defs>
    <style>
      .cls-1 {
        fill: #020100;
      }
    </style>
  </defs>
  <g id="Layer_2-2" data-name="Layer 2">
    <g>
      <path class="cls-1" d="M0,14.87V4.41H1.57l.1,1.92V14.87H0Zm7.34-5.35c0-1.03-.12-1.82-.36-2.36-.24-.54-.56-.92-.98-1.12-.42-.2-.89-.3-1.42-.3-.92,0-1.64,.32-2.14,.97-.51,.65-.76,1.57-.76,2.75H.86c0-1.1,.16-2.05,.48-2.84,.32-.79,.78-1.4,1.39-1.82,.61-.42,1.34-.63,2.21-.63,1.27,0,2.27,.39,3,1.17,.73,.78,1.09,1.97,1.08,3.56l-1.67,.63Zm0,5.35v-5.35l1.67-.63v5.98h-1.67Z"/>
      <path class="cls-1" d="M15.04,15.12c-1.24,0-2.21-.28-2.9-.85-.69-.56-1.04-1.35-1.04-2.35,0-1.06,.35-1.87,1.06-2.44,.7-.56,1.69-.85,2.96-.85h3.68v1.4h-3.3c-.98,0-1.67,.16-2.08,.48s-.62,.78-.62,1.38c0,.54,.2,.97,.61,1.29,.4,.31,.97,.47,1.69,.47,.61,0,1.14-.14,1.59-.42s.79-.66,1.02-1.14,.36-1.03,.36-1.64h1.02c0,1.42-.35,2.56-1.05,3.4-.7,.84-1.7,1.27-3.01,1.27Zm3.18-.25l-.17-5.52c-.03-.82-.13-1.5-.31-2.04s-.46-.94-.84-1.21-.88-.41-1.51-.41-1.12,.12-1.56,.36c-.44,.24-.8,.61-1.08,1.11l-1.48-.61c.26-.49,.59-.91,.98-1.27,.39-.36,.85-.63,1.38-.83,.53-.19,1.12-.29,1.78-.29,.96,0,1.76,.19,2.41,.56,.64,.38,1.12,.94,1.43,1.68,.31,.75,.47,1.68,.47,2.79v5.67h-1.51Z"/>
      <path class="cls-1" d="M22.38,14.87l.04-14.64h1.67l-.04,14.64h-1.67Z"/>
      <path class="cls-1" d="M30.39,15.12c-1.24,0-2.21-.28-2.9-.85-.69-.56-1.04-1.35-1.04-2.35,0-1.06,.35-1.87,1.06-2.44,.7-.56,1.69-.85,2.96-.85h3.68v1.4h-3.3c-.98,0-1.67,.16-2.08,.48s-.62,.78-.62,1.38c0,.54,.2,.97,.61,1.29,.4,.31,.97,.47,1.69,.47,.61,0,1.14-.14,1.59-.42s.79-.66,1.02-1.14,.36-1.03,.36-1.64h1.02c0,1.42-.35,2.56-1.05,3.4-.7,.84-1.7,1.27-3.01,1.27Zm3.18-.25l-.17-5.52c-.03-.82-.13-1.5-.31-2.04s-.46-.94-.84-1.21-.88-.41-1.51-.41-1.12,.12-1.56,.36c-.44,.24-.8,.61-1.08,1.11l-1.48-.61c.26-.49,.59-.91,.98-1.27,.39-.36,.85-.63,1.38-.83,.53-.19,1.12-.29,1.78-.29,.96,0,1.76,.19,2.41,.56,.64,.38,1.12,.94,1.43,1.68,.31,.75,.47,1.68,.47,2.79v5.67h-1.51Z"/>
      <path class="cls-1" d="M36.39,14.87l4.27-6,3.01-4.46h1.99l-3.97,5.65-3.26,4.81h-2.03Zm7.51,0l-3.22-4.81-4.02-5.65h1.99l3.03,4.46,4.23,6h-2.01Z"/>
      <path class="cls-1" d="M54.32,15.12c-1.48,0-2.79-.32-3.92-.97-1.14-.65-2.03-1.54-2.67-2.68-.64-1.14-.96-2.44-.96-3.92s.32-2.79,.96-3.92c.64-1.14,1.52-2.02,2.65-2.67,1.12-.64,2.42-.96,3.88-.96s2.76,.32,3.89,.97c1.13,.65,2.02,1.54,2.66,2.68,.64,1.14,.96,2.44,.96,3.92s-.32,2.76-.95,3.9c-.63,1.14-1.51,2.03-2.62,2.68-1.12,.65-2.41,.97-3.87,.97Zm0-2.61c.88,0,1.66-.21,2.34-.64,.68-.43,1.22-1.01,1.6-1.76,.38-.75,.58-1.6,.58-2.56s-.2-1.81-.59-2.55c-.39-.74-.93-1.32-1.61-1.75-.68-.43-1.48-.64-2.38-.64s-1.66,.21-2.35,.64c-.69,.43-1.23,1.01-1.62,1.75-.39,.74-.59,1.6-.59,2.57s.2,1.81,.59,2.55c.39,.74,.93,1.32,1.63,1.75s1.5,.64,2.41,.64Z"/>
      <path class="cls-1" d="M64.09,14.87V.23h2.99l-.13,2.53V14.89l-2.87-.02Zm10.14,0L64.76,1.8l2.32-1.57,9.43,13.01-2.28,1.63Zm0,0V.23h2.84V14.87h-2.84Z"/>
      <path class="cls-1" d="M80.25,14.87V.23h2.87V14.87h-2.87Zm2.18-12.03V.23h7.09V2.84h-7.09Zm0,5.88v-2.55h6.21v2.55h-6.21Zm0,6.15v-2.61h7.17v2.61h-7.17Z"/>
    </g>
  </g>
</svg>